<svg height="40" width="40" viewBox="0 0 9.26715 9.26715" xml:space="preserve" xmlns="http://www.w3.org/2000/svg"><path style="fill:#fff;stroke-width:.00927849" d="M4.633575 0A4.633575 4.633575 0 0 0 0 4.633575 4.633575 4.633575 0 0 0 4.633575 9.26715 4.633575 4.633575 0 0 0 9.26715 4.633575 4.633575 4.633575 0 0 0 4.633575 0zm-.6868913 2.780145c.0553842 0 .1106694.0209573.1529442.0628972l1.6520686 1.6384936c.0845698.0838797.0845698.2198662 0 .3036259L4.0996279 6.4241078c-.0422043.0419999-.0975524.0628972-.1529442.0628972-.0552708 0-.1110513-.0207973-.1533967-.0628972-.0845698-.0838797-.0845698-.2197461 0-.3036258l1.4995769-1.486907L3.793287 3.146668c-.0845698-.0838797-.0845698-.2198661 0-.3036258.0422849-.0419399.0980125-.0628972.1533967-.0628972z"/></svg>