<svg width="2666.6667" height="2666.6667" xmlns="http://www.w3.org/2000/svg"><path d="M1003.49 1683.05c.71 0 1.42-.01 2.13-.03 27.45-.71 61.13-21.23 75.5-43.65-4.19.25-8.37.52-12.55.78-21.89 1.36-44.52 2.77-66.89 2.81-22.488-.04-45.254-1.3-67.323-2.59-4.343-.25-8.7-.51-13.071-.75 15.496 24.56 49.839 43.43 82.204 43.43zm-67.937-63.13c22.769 1.33 44.124 2.5 66.097 2.55 21.74-.04 44.06-1.43 65.64-2.78 9.77-.61 19.56-1.21 29.38-1.71l13.78-.7-3.32 13.39c-9 36.33-58.07 71.72-100.98 72.83-48.192 1.14-98.924-31.76-111.002-72.06l-4.152-13.85 14.449.68c10.117.48 20.146 1.06 30.108 1.65" style="fill:#100f0d;fill-opacity:1;fill-rule:nonzero;stroke:none;stroke-width:15.00000038;stroke-dasharray:none" transform="matrix(1.33333 0 0 -1.33333 0 2666.6667)"/><path d="M432.055 1231.48c6.368 84.55 43.214 157.7 112.644 223.63 74.381 70.63 166.801 117.52 282.546 143.34 13.498 3.01 33.897 7.56 42.938 33.25 18.06 51.29 75.329 87.1 136.187 85.13 55.1-1.82 103.43-35.72 126.13-88.47 5.6-13.02 20.42-25.04 34.48-27.95 69.4-14.41 132.27-37.98 186.87-70.07 135.25-79.49 203.32-174.67 214.24-299.53.03-.38.06-.74.09-1.07-146.36.36-295.07.33-438.89.3l-368.061-.05c-90.552 0-209.47-.04-326.279-.33-1.171 0-2.163.02-2.997.06.02.52.052 1.11.102 1.76zm2.657-40.68c143.859.36 289.924.35 431.185.32l156.903-.02v.07l104.59.02c144.42.02 293.74.05 440.58-.31 9.79-.17 22.22.89 31.01 10.47 8.6 9.36 8.78 21.86 7.82 32.85-12.11 138.48-86.23 243.22-233.26 329.64-58.26 34.25-125.1 59.35-198.67 74.61-1.78.42-5.86 3.65-6.69 5.3-28.69 66.7-90.22 109.59-160.54 111.91-77.353 2.58-150.53-44.08-174.108-111.06-1.562-4.43-1.888-5.35-14.75-8.22-122.805-27.4-221.212-77.48-300.843-153.09C441.2 1410.42 400.431 1329 393.306 1234.4c-.689-9.16-.533-22.49 8.761-32.49 9.159-9.85 22.257-11.11 32.645-11.11M1641.9 1109.08c-2.3-6.12-3.8-8.1-14.01-7.96-33.16.41-66.65.52-99.82.52-19.2 0-38.29-.04-57.15-.07-16.17-.03-32.34-.06-48.51-.07-3.73-.01-7.35-.21-11.18-.42-1.8-.1-3.68-.21-5.69-.3l-6.84-.31 1.67.9H913.779l1.912-.65H798.633l-.135.75-208.113.06c-71.016-.01-144.439-.02-218.242.16-2.111 0-6.506.01-9.146.39-4.158 6.74-7.851 14.14-11.592 21.91H1648.5c-2.41-4.9-4.66-9.77-6.6-14.91zm-605.07-33.42h259.51c-3.85-2.61-7.55-5.47-11.02-8.69-17.57-16.31-31.87-35.82-45.71-54.68-3.28-4.48-6.56-8.96-9.88-13.38-8.35-11.14-16.4-22.67-24.18-33.82-11.34-16.26-23.07-33.08-35.65-48.45-14.45-17.64-32.39-26.14-53.49-25.46-7.08.25-16.66 2.26-26.81 4.38-10.35 2.17-20.95 4.39-31.04 5.27 1.15 26.27 1.95 52.69 1.98 78.93l.02 4.86c.11 30.03.25 65.32-23.73 91.04zm-94.591-15.46c14.771-44.69 19.905-94.9 16.157-158.01-.026-.4-.051-.8-.076-1.2-9.179 42.33-25.852 86.61-51.058 136.55-6.368 12.62-13.158 26.07-22.79 37.47h56.082c-.186-4.75.026-9.79 1.685-14.81zm472.011 1.76c-69.38-30.16-103.3-89.09-127.33-142.77-16.45-36.74-16.04-74.31 1.23-111.67 10.44-22.57 21.23-45.4 31.67-67.48l4.94-10.44c12.23-25.89 14.08-51.31 5.65-77.72-12.25-38.38-32.2-70.78-59.31-96.29-3.59-3.38-6.61-6.86-9.17-10.41-6.26-3.19-16.15-9.47-32.42-19.99-8.64-5.59-20.46-13.23-23.2-14.46-23.69-8.8-41.14-4.69-56.3 13.4-5.69 6.8-11.65 13.41-17.41 19.81-9.42 10.44-18.31 20.31-26.23 31-31.15 42.02-67.08 74-109.85 97.76-18.101 10.06-31.986 20.27-42.448 31.21-12.441 13.02-22.285 28.02-27.719 42.25-5.546 14.52-8.974 29.87-12.603 46.11-1.971 8.82-4.009 17.94-6.42 26.92-20.442 76.17-48.64 164.94-102.794 245.83-1.602 2.39-2.119 8.1-2.617 13.61-.147 1.62-.301 3.34-.493 5.11l36.234-8.4c24.602-5.7 34.817-25.95 46.645-49.38 39.117-77.52 56.691-140.22 56.981-203.33l.058-12.49 29.669-.72 1.664 11.25c1.191 8.05 2.601 16.3 3.966 24.27 3.096 18.11 6.3 36.84 7.421 55.73 3.95 66.46-1.582 119.72-17.408 167.6-.725 2.19-.409 6.4-.104 10.47.109 1.44.225 2.99.312 4.61l20.639-7.01c47.627-16.17 47.497-51.13 47.337-91.62l-.01-4.92c-.08-50.15-2.97-101.31-5.77-150.8-1.16-20.41-2.36-41.51-3.34-62.3-.15-3.24-.48-6.53-.89-10.68-.22-2.22-.45-4.61-.69-7.28l-1.98-22.19 20.21 9.39c70.57 32.81 122.33-3.59 177.13-42.13 4.6-3.23 9.21-6.47 13.82-9.67l14.65 21.14c-4.57 3.16-9.12 6.36-13.68 9.57-51.15 35.97-108.57 76.36-182.8 52.29.96 20.14 2.12 40.6 3.24 60.41.89 15.71 1.79 31.59 2.61 47.57 8.33-.82 17.77-2.8 26.99-4.73 11.25-2.35 21.88-4.58 31.17-4.91 29.05-1.06 54.77 11.02 74.3 34.87 13.2 16.14 25.22 33.36 36.84 50.02 7.66 10.98 15.57 22.33 23.66 33.11 3.38 4.5 6.71 9.04 10.05 13.6 13.12 17.89 26.69 36.4 42.46 51.04 9.08 8.42 21.43 14.15 34.52 20.21 6.01 2.79 12.24 5.67 18.17 8.87l26.22 14.12 16.25-13.33c2.56-2.1 5.04-3.95 7.39-5.69 3.76-2.81 7.02-5.23 8.82-7.56.67-.88 1.1-1.61 1.35-2.14-.31-.18-.73-.4-1.28-.64zm-59.5-418.36c18.36-14.44 46.38-33.75 68.3-48.47-.64-1.37-1.32-2.77-1.95-4.14-4.61-9.92-8.97-19.28-13.96-28.21-17.95-32.08-43.54-62.33-78.19-92.42-3.36-1.41-7.15-3.15-11.28-5.17-1.25.17-2.64.54-4.25 1.1-12.46 4.29-25.07 7.49-38.43 10.87-1.8.45-3.62.91-5.46 1.38 1.02 5.27 1.71 10.46 2.39 15.56 2.19 16.52 4.09 30.79 16.8 42.76 30.22 28.44 52.42 64.35 66.03 106.74zm-89.82-206.59c-19.04-10.51-38.57-21.29-53.19-28.41-7.23 20.94-17.8 49.94-27.93 72.01 9.96-.05 20.54 1.97 31.72 6.12 4 1.49 10.84 5.81 27.94 16.86 1.3.85 2.71 1.76 4.19 2.71-.46-2.98-.85-5.93-1.23-8.82-1.13-8.52-2.2-16.56-4.71-24.11l-4.29-12.94 13.16-3.53c6.23-1.67 12.24-3.19 18.09-4.67 5.55-1.41 10.97-2.78 16.26-4.2-6.47-3.54-13.19-7.25-20.01-11.02zm-508.191 590.27c24.17-34.39 44.759-73.25 62.328-117.76-49.818 60.18-101.043 111.88-155.593 157.12-2.447 2.03-4.653 7.81-6.991 13.93-1.09 2.86-2.281 5.98-3.677 9.21l28.695-12.9c2.576-1.15 4.508-2.12 6.054-2.88 3.239-1.61 6.04-3.01 9.642-3.59 22.838-3.73 41.202-17.04 59.542-43.13zm-446.603 122.43 9.279-18.6c2.233-4.48 4.321-8.85 6.357-13.12 5.441-11.41 10.58-22.18 17.237-32.42 6.213-9.55 19.426-9.58 29.075-9.6 73.835-.18 147.281-.17 218.304-.16l40.362.01c.588-1.48 1.151-2.96 1.709-4.42 3.419-8.95 6.955-18.21 14.6-24.55 65.506-54.33 126.197-118.3 185.537-195.56 1.207-1.57 2.445-3.11 4.197-5.29l24.168-30.26 2.058 33.32c.091 1.47.232 2.63.346 3.59.308 2.61.694 5.86-.456 9.55-22.09 70.95-49.937 129.79-85.129 179.86-7.431 10.58-17.425 23.2-30.982 33.69h29.561c.775-8.55 1.667-17.36 6.806-25.03 52.071-77.79 79.432-164.06 99.329-238.19 2.269-8.46 4.247-17.31 6.159-25.87 3.67-16.42 7.464-33.4 13.678-49.67 8.492-22.25 22.716-39.93 33.154-50.85 12.273-12.83 28.152-24.58 48.545-35.92 39.5-21.94 72.76-51.58 101.68-90.59 8.65-11.68 18.38-22.47 27.78-32.91 5.61-6.22 11.41-12.66 16.8-19.1 6-7.16 12.48-12.85 19.39-17.17 7.49-8.49 27.46-59.35 42.05-102.85 10.45-49.25 31.24-96.16 63.55-143.36l21.22 14.52c-28.3 41.35-47.17 82.28-57.49 124.81 15.59 7.33 36.48 18.86 58.35 30.93 16.55 9.14 33.48 18.49 46.89 25.25 6.98 1.03 13.53 4.27 19.92 9.78 37.76 32.53 65.7 65.47 85.41 100.7 5.46 9.76 10.23 20.01 14.84 29.92.41.89.82 1.78 1.24 2.67 41.3-19.52 78.01-50.15 114.68-95.53l20 16.17c-42.38 52.45-85.24 86.64-134.76 107.53-34.29 22.86-73.33 50.45-84.86 60.75 2.34 23.15-1.86 45.88-12.71 68.85l-4.94 10.44c-10.42 22.03-21.19 44.81-31.57 67.27-14.01 30.32-14.39 60.73-1.11 90.38 22.01 49.18 52.79 103.04 114.11 129.7 11 4.78 14.96 12.18 16.34 17.54 1.65 6.37.5 13.28-3.21 19.87 11.11.02 22.23.04 33.34.06 51.35.1 104.44.2 156.6-.44 12.45-.18 29.95 2.23 38.39 24.59 2.49 6.6 5.9 13.29 9.51 20.37 1.78 3.5 3.62 7.1 5.45 10.88l8.94 18.46H310.136" style="fill:#0f0f0f;fill-opacity:1;fill-rule:nonzero;stroke:#000;stroke-width:15.00000038;stroke-dasharray:none;stroke-opacity:1" transform="matrix(1.33333 0 0 -1.33333 0 2666.6667)"/><path d="M1309.23 510.61c.34 1.9 4.08 6.08 6.65 8.93 2.67-3.41 5.89-7.55 6.26-9.87.3-1.89-.24-2.52-.44-2.76-.72-.85-2.67-1.85-5.82-1.89-3.23.01-5.36.93-6.13 1.84-.81.95-.73 2.57-.52 3.75zm-19.1-20.37c5.98-7.06 15.05-10.93 25.57-10.93h.45c10.18.1 19.36 4.11 25.19 10.99 5.37 6.36 7.57 14.66 6.2 23.38-1.42 9.01-6.87 15.93-11.67 22.04-1.7 2.15-3.3 4.19-4.53 6.08l-3.69 5.66-21.87.56-3.98-5.37c-1.32-1.78-3.06-3.71-4.9-5.75-5.32-5.92-11.36-12.62-12.99-21.81-1.65-9.34.55-18.17 6.22-24.85" style="fill:#100f0d;fill-opacity:1;fill-rule:nonzero;stroke:none;stroke-width:15.00000038;stroke-dasharray:none" transform="matrix(1.33333 0 0 -1.33333 0 2666.6667)"/></svg>