<svg width="5333.3335" height="5333.3335" xmlns="http://www.w3.org/2000/svg"><path d="M1760.91 2467.86c-128.32-465.89-376.72-803.87-555.08-755.47l-.01-.02c.03-.01.06-.02.08-.03 178.41-49.09 427.08 289.16 555.42 755.5 66.79 242.68 87.82 472.21 67.5 643.49l-165.88 45.64 165.61-45.63c20.28-171.29-.8-400.82-67.64-643.48" style="fill:#000;fill-opacity:1;fill-rule:nonzero;stroke:none;stroke-width:.1" transform="matrix(1.33333 0 0 -1.33333 0 5333.3333)"/><path d="M1205.82 1712.39v-.02l.01.02h-.01" style="fill:#000;fill-opacity:1;fill-rule:nonzero;stroke:none;stroke-width:.1" transform="matrix(1.33333 0 0 -1.33333 0 5333.3333)"/><path d="m1205.84 1712.39-.01-.03-.01.01v.02c-177.99 49.72-218.383 467.21-90.16 933.12 66.79 242.68 166.16 450.65 271.26 587.42l220.82-60.76 220.81-60.83c20.28-171.29-.8-400.82-67.64-643.48-128.32-465.89-376.72-803.87-555.07-755.47zm567.05 736.53c68.09 247.24 90.09 481.46 70.42 658.43-.71 6.41-4.39 11.32-9.49 12.73l-223.07 61.46-.4.1-.39.11-223.1 61.39c-5.1 1.4-10.78-.93-14.67-6.07-107.47-141.98-208.47-354.45-276.51-601.69-7.22-26.23-21.25-75.65-35.78-142.15-22.13-101.35-31.67-177.68-33.77-194.86-6.67-54.74-12.41-101.76-12.54-167.09-.07-37.01-.04-90.34 10.73-157.41 5.37-33.46 14.88-79.58 32.57-132.55 17.62-52.77 26.76-62.67 38.38-97.53 25.23-75.76 19.05-142.18 16.85-176.39-3.11-48.39-11.43-82.25-22.38-126.82-12.96-52.75-36.43-156.55-61.35-249.79-24.81-92.75-117.803-459.85-156.733-585.61-1.95-6.3-12.602-39.36-41.3-65.86-33.833-31.24-63.811-26.64-64.222-26.52-.013 0-.281.07-.653.16-.277.06-.678.13-1.377.17-54.3 3.72-108.602 7.43-162.903 11.14-6.942.47-13.761-5.39-16.087-13.84-2.616-9.5 1.333-18.87 8.818-20.93l255.421-70.33.395-.11.394-.1 255.417-70.33c7.49-2.06 15.68 3.97 18.29 13.47 2.33 8.45-.52 16.98-6.73 20.13-48.55 24.6-97.1 49.21-145.648 73.81-.624.32-1.004.46-1.273.55-.364.12-.63.2-.642.2-.411.11-28.519 11.51-41.595 55.66-11.091 37.45-3.32 71.31-1.772 77.72 30.927 127.96 138.93 490.92 165.1 583.3 26.31 92.86 59.28 194.05 75.15 246 13.4 43.89 23.59 77.24 45.68 120.39 15.63 30.52 44.31 90.74 104.76 142.91 27.83 24.01 40.75 27.84 82.89 64.14 42.31 36.45 74.1 71.21 95.83 97.2 43.59 52.11 70.9 97.91 89.78 129.74 33.34 56.19 52.48 99.52 74.76 149.97 6.99 15.82 37.86 86.28 70.72 184.68 21.57 64.56 34.81 114.2 42.03 140.42M2676.32 2535.51c173.41-451.05 174.25-870.5 2.01-937.46l.01-.03c.02.01.05.02.08.03 172.69 66.45 171.9 486.27-1.76 937.69-90.37 234.92-209.75 432.09-327.81 557.83l-160.57-61.79 160.34 61.63c118.04-125.77 237.38-322.97 327.7-557.9" style="fill:#000;fill-opacity:1;fill-rule:nonzero;stroke:none;stroke-width:.1" transform="matrix(1.33333 0 0 -1.33333 0 5333.3333)"/><path d="m2678.32 1598.04.01-.02h.01l-.01.03-.01-.01" style="fill:#000;fill-opacity:1;fill-rule:nonzero;stroke:none;stroke-width:.1" transform="matrix(1.33333 0 0 -1.33333 0 5333.3333)"/><path d="m2678.33 1598.05.01-.03h-.01l-.01.02c-172.73-65.69-453.15 246.23-626.66 697.24-90.37 234.91-133.92 461.26-130.57 633.71l213.75 82.25 213.78 82.17c118.04-125.77 237.38-322.97 327.7-557.9 173.41-451.05 174.25-870.49 2.01-937.46zm18.87 929.34c-92.02 239.36-213.42 440.87-334.33 571.59-4.38 4.73-10.26 6.49-15.19 4.6l-215.98-83.02h-.01l-.38-.15-.38-.15-215.95-83.09c-4.94-1.9-8.12-7.15-8.2-13.6-2.16-178.05 42.75-408.97 134.82-648.31 9.77-25.39 27.82-73.49 55.63-135.61 42.38-94.69 80.03-161.78 88.54-176.84 27.13-48.01 50.44-89.25 89.14-141.89 21.91-29.81 53.6-72.71 102.1-120.28 24.18-23.73 59.24-55.19 104.92-87.31 45.51-31.99 58.74-34.52 88.79-55.68 65.29-45.97 99.76-103.08 118.31-131.91 26.23-40.78 39.64-72.96 57.3-115.32 20.89-50.14 63.66-147.6 98.96-237.42 35.13-89.36 178.3-439.95 221.66-564.25 2.17-6.23 13.23-39.15 5.88-77.51-8.68-45.23-35.53-59.33-35.93-59.48-.01-.01-.27-.11-.61-.26-.26-.12-.63-.3-1.22-.68-45.89-29.26-91.79-58.51-137.68-87.77-5.87-3.74-7.87-12.51-4.73-20.69 3.54-9.2 12.28-14.39 19.53-11.61l247.27 95.1.38.14.38.15 247.27 95.1c7.25 2.78 10.26 12.5 6.72 21.69-3.15 8.18-10.51 13.35-17.37 12.2-53.67-9.04-107.35-18.07-161.02-27.1-.69-.12-1.08-.22-1.35-.31-.36-.13-.62-.22-.64-.22-.39-.16-29.77-7.68-66.51 20.08-31.17 23.54-45.02 55.4-47.58 61.47-51.11 121.33-179.74 477.5-213.54 567.37-33.98 90.33-67.54 191.33-85.62 242.55-15.28 43.28-26.89 76.16-34.74 124-5.55 33.83-18.23 99.32-.57 177.19 8.13 35.84 16.25 46.59 28.6 100.83 12.39 54.45 17.33 101.29 19.38 135.11 4.13 67.81-1.09 120.88-4.8 157.7-6.55 65.01-16.88 111.24-28.91 165.05-3.77 16.89-20.78 91.92-52.76 190.6-20.99 64.75-39.82 112.55-49.58 137.94M1227.1 1776.36c165.92-45.65 402.16 286.98 527.65 742.95 14.58 52.98 27.01 105.27 37.35 156.42h-640.63c-122.63-452.35-89.21-854.02 75.63-899.37" style="fill:#000;fill-opacity:1;fill-rule:nonzero;stroke:none;stroke-width:.1" transform="matrix(1.33333 0 0 -1.33333 0 5333.3333)"/><path d="M2059.19 2349.46c169.81-441.4 437.66-749.12 598.26-687.32 152.15 58.55 153.47 427.71 8.83 841.68h-660.4c15.51-50.64 33.27-102.27 53.31-154.36" style="fill:#000;fill-opacity:1;fill-rule:nonzero;stroke:none;stroke-width:.1" transform="matrix(1.33333 0 0 -1.33333 0 5333.3333)"/><path d="M2564.02 1735.53c-34.16 12.01-98.35 40.2-163.08 106.59-87.37 89.62-122.02 193.78-133.63 234.1 29.67-52.47 72.29-118.57 130.99-186.43 60.9-70.38 119.71-120.26 165.72-154.26M1195.5 1890.89c-20.35 29.94-55.26 90.74-67.91 182.6-17.08 123.99 16.89 228.37 31.5 267.71-7.29-59.84-12.25-138.33-5.31-227.79 7.19-92.79 24.9-167.84 41.72-222.52" style="fill:#fff;fill-opacity:1;fill-rule:nonzero;stroke:none;stroke-width:.1" transform="matrix(1.33333 0 0 -1.33333 0 5333.3333)"/><path d="m1792.1 3310.45-31.6 9.6-18.69-27.23-7.49 32.17-32.93 2.58 24.11 22.57-14.22 29.8 31.6-9.6 18.7 27.23 7.48-32.17 32.93-2.58-24.11-22.57 14.22-29.8" style="fill:#000;fill-opacity:1;fill-rule:nonzero;stroke:none;stroke-width:.1" transform="matrix(1.33333 0 0 -1.33333 0 5333.3333)"/><path d="m1792.1 3310.45-31.6 9.6-18.69-27.23-7.49 32.17-32.93 2.58 24.11 22.57-14.22 29.8 31.6-9.6 18.7 27.23 7.48-32.17 32.93-2.58-24.11-22.57z" style="fill:none;stroke:#fff;stroke-width:10;stroke-linecap:butt;stroke-linejoin:miter;stroke-miterlimit:10;stroke-dasharray:none;stroke-opacity:1" transform="matrix(1.33333 0 0 -1.33333 0 5333.3333)"/><path d="m2044.56 3345.19-35.02 20.03-29.67-27.33-.17 40.34-38.51 12.03 34.86 20.32-8.84 39.36 35.02-20.03 29.67 27.33.17-40.34 38.51-12.03-34.86-20.31 8.84-39.37" style="fill:#000;fill-opacity:1;fill-rule:nonzero;stroke:none;stroke-width:.1" transform="matrix(1.33333 0 0 -1.33333 0 5333.3333)"/><path d="m2044.56 3345.19-35.02 20.03-29.67-27.33-.17 40.34-38.51 12.03 34.86 20.32-8.84 39.36 35.02-20.03 29.67 27.33.17-40.34 38.51-12.03-34.86-20.31z" style="fill:none;stroke:#fff;stroke-width:10;stroke-linecap:butt;stroke-linejoin:miter;stroke-miterlimit:10;stroke-dasharray:none;stroke-opacity:1" transform="matrix(1.33333 0 0 -1.33333 0 5333.3333)"/><path d="m1949.98 3156.97-39.33 22.73-33.55-30.62.02 45.42-43.29 13.75 39.35 22.69-9.74 44.36 39.32-22.73 33.55 30.62-.02-45.42 43.29-13.75-39.34-22.69 9.74-44.36" style="fill:#000;fill-opacity:1;fill-rule:nonzero;stroke:none;stroke-width:.1" transform="matrix(1.33333 0 0 -1.33333 0 5333.3333)"/><path d="m1949.98 3156.97-39.33 22.73-33.55-30.62.02 45.42-43.29 13.75 39.35 22.69-9.74 44.36 39.32-22.73 33.55 30.62-.02-45.42 43.29-13.75-39.34-22.69z" style="fill:none;stroke:#fff;stroke-width:10;stroke-linecap:butt;stroke-linejoin:miter;stroke-miterlimit:10;stroke-dasharray:none;stroke-opacity:1" transform="matrix(1.33333 0 0 -1.33333 0 5333.3333)"/><path d="m1175.88 3283.19-71.21 10.59-31.61-64.68-26.44 66.96-71.822-4.96 44.782 56.38-40.216 59.72 71.216-10.59 31.61 64.68 26.44-66.96 71.82 4.96-44.78-56.38 40.21-59.72" style="fill:#000;fill-opacity:1;fill-rule:nonzero;stroke:none;stroke-width:.1" transform="matrix(1.33333 0 0 -1.33333 0 5333.3333)"/><path d="m1175.88 3283.19-71.21 10.59-31.61-64.68-26.44 66.96-71.822-4.96 44.782 56.38-40.216 59.72 71.216-10.59 31.61 64.68 26.44-66.96 71.82 4.96-44.78-56.38z" style="fill:none;stroke:#fff;stroke-width:10;stroke-linecap:butt;stroke-linejoin:miter;stroke-miterlimit:10;stroke-dasharray:none;stroke-opacity:1" transform="matrix(1.33333 0 0 -1.33333 0 5333.3333)"/><path d="m2630.29 3216.14-54.34 21.45-36.87-45.32-8.59 57.79-57.68 9.27 45.75 36.33-20.81 54.59 54.33-21.45 36.87 45.31 8.6-57.78 57.68-9.27-45.75-36.34 20.81-54.58" style="fill:#000;fill-opacity:1;fill-rule:nonzero;stroke:none;stroke-width:.1" transform="matrix(1.33333 0 0 -1.33333 0 5333.3333)"/><path d="m2630.29 3216.14-54.34 21.45-36.87-45.32-8.59 57.79-57.68 9.27 45.75 36.33-20.81 54.59 54.33-21.45 36.87 45.31 8.6-57.78 57.68-9.27-45.75-36.34z" style="fill:none;stroke:#fff;stroke-width:10;stroke-linecap:butt;stroke-linejoin:miter;stroke-miterlimit:10;stroke-dasharray:none;stroke-opacity:1" transform="matrix(1.33333 0 0 -1.33333 0 5333.3333)"/><path d="m1934.43 3573.53-71.93 8.63-29.96-65.96-28.49 66.6-72.1-7.04 43.43 57.98-42.14 58.92 71.92-8.62 29.96 65.96 28.49-66.6 72.11 7.03-43.44-57.98 42.15-58.92" style="fill:#000;fill-opacity:1;fill-rule:nonzero;stroke:none;stroke-width:.1" transform="matrix(1.33333 0 0 -1.33333 0 5333.3333)"/><path d="m1934.43 3573.53-71.93 8.63-29.96-65.96-28.49 66.6-72.1-7.04 43.43 57.98-42.14 58.92 71.92-8.62 29.96 65.96 28.49-66.6 72.11 7.03-43.44-57.98z" style="fill:none;stroke:#fff;stroke-width:10;stroke-linecap:butt;stroke-linejoin:miter;stroke-miterlimit:10;stroke-dasharray:none;stroke-opacity:1" transform="matrix(1.33333 0 0 -1.33333 0 5333.3333)"/></svg>