<svg width="849.99902" height="417.81299" viewBox="0 0 849.99901 417.81298" xml:space="preserve" xmlns="http://www.w3.org/2000/svg"><path style="fill:#000;stroke:#000;stroke-width:4.82475;stroke-dasharray:none;stroke-opacity:1" d="M1325.6179 785.18963c-18.8707 1.5365-29.1427 3.1268-43.4651 6.7294-38.3107 9.6364-77.2055 30.3241-104.9154 55.8034l-3.7555 3.4533-7.656-6.1588c-52.2745-42.051-125.7276-61.2992-188.58302-49.4175-30.4592 5.7578-56.917 18.9469-75.8217 37.7971-15.8193 15.7735-25.4669 33.5591-29.724 54.7967-1.7991 8.9751-1.7692 30.1383.056 39.375 6.2162 31.4639 21.9758 58.9586 48.5887 84.76947 61.778 59.9163 161.66482 82.6832 234.84602 53.5279 4.0675-1.6205 9.448-3.9824 11.9567-5.2488l4.5612-2.3025 9.4563 4.4846c22.6269 10.7307 44.9947 15.4017 73.5812 15.3659 26.3624-.033 50.9004-4.3387 76.0973-13.3526 76.3053-27.2976 132.8512-88.22277 141.4316-152.38547 1.1718-8.7622.5345-28.542-1.1673-36.2335-9.4727-42.8124-40.9188-73.2225-88.4454-85.5316-18.1828-4.7092-40.3235-6.8332-57.0412-5.472zm35.9902 6.643c17.1994 2.2546 36.6843 8.3607 50.6348 15.8676 10.3224 5.5546 17.8416 11.2106 26.6637 20.0567 15.7997 15.8428 23.974 31.8673 27.7376 54.3753 1.692 10.1188 1.1724 27.6787-1.1446 38.686-1.8405 8.7432-6.4201 22.6584-9.75 29.625-2.4732 5.1744-2.4648 5.0555.4215-5.9808 12.1487-46.4519-11.4851-88.8882-58.6103-105.2393-55.3317-19.1985-129.81-2.8936-183.6677 40.2087-4.1111 3.2902-7.8608 6.0168-8.3324 6.0592-.4717.043-3.2421-2.9982-6.1564-6.7569-2.9143-3.7587-9.0333-10.7187-13.5977-15.4667l-8.299-8.6327 3.5552-3.3158c15.6698-14.615 41.6481-31.2442 64.3886-41.2163 38.0526-16.6867 79.0472-23.1347 116.1567-18.27zm-314.2402 7.7927c29.2254 4.6827 52.31 12.1785 77.25 25.0841 22.1107 11.4414 37.4948 22.6096 54.3886 39.4838 15.0376 15.02 24.9412 28.2921 32.9247 44.123 16.278 32.2784 18.0432 66.9397 4.8799 95.82457-2.4494 5.3749-10.3162 18.3024-11.1376 18.3024-.5039 0-12.7093-3.8586-13.2818-4.1989-.262-.1557.4828-3.0715 1.6551-6.4796 15.9241-46.29647-12.5506-101.90347-70.9289-138.51377-8.5842-5.3834-28.2464-15.1666-38.3883-19.1008-14.1515-5.4895-32.3119-10.2547-48.9867-12.8538-10.7276-1.6721-37.39172-2.3022-48.17292-1.1383-58.2041 6.2836-96.2161 37.5469-101.1684 83.2071-1.4392 13.2703 1.2227 30.4467 6.7617 43.6298 1.2656 3.0123 2.17 5.6079 2.0099 5.768-.5809.5809-7.5317-13.044-10.7871-21.1447-20.3891-50.7346-5.7444-99.4396 38.8568-129.2293 17.4363-11.646 43.2141-20.6136 68.4434-23.8103 12.52612-1.5871 42.79472-1.0181 55.68162 1.0467zm316.9831 37.6018c25.7088 2.5947 50.0198 12.5504 64.8175 26.5437l4.2962 4.0627-.4254 11.1173c-.4859 12.6992-2.8127 23.4098-7.6289 35.1174-26.8403 65.2454-110.3968 115.42937-187.5425 112.63787-10.4418-.3779-24.6515-2.0395-25.6063-2.9943-.1754-.1754 1.3116-2.9794 3.3044-6.2313 7.1596-11.6831 11.8173-24.15607 14.0758-37.69407 1.8705-11.2119 1.2111-31.0773-1.3972-42.0932-3.2542-13.7439-9.2492-28.5422-16.5084-40.7495-1.9213-3.231-3.4933-5.9855-3.4933-6.1211 0-.4146 12.798-10.4306 18.4414-14.4326 16.8674-11.9615 39.7096-23.3587 60.3086-30.0913 13.067-4.2709 30.7663-7.8914 45.75-9.3585 6.1568-.6028 24.4369-.4369 31.6081.2869zm-328.9831 9.2977c36.4849 5.9236 70.388 19.7492 97.591 39.7974 3.6625 2.6991 6.6556 5.1524 6.6513 5.4518 0 .2993-2.7716 6.1129-6.1496 12.9192-6.5371 13.1714-10.3529 23.6439-12.8728 35.3291-5.6465 26.1837-2.4812 52.3535 8.9647 74.11877 2.0457 3.8901 3.4599 7.3053 3.1425 7.5893-.3174.284-3.6146 1.0573-7.3271 1.7185-24.2941 4.3267-52.7722 3.1586-78.9375-3.2376-57.72542-14.1114-105.95072-48.95267-127.67332-92.23997-6.414-12.7813-9.7919-24.9676-10.7967-38.9502l-.3986-5.5471 6.5442-6.4529c7.7339-7.6261 15.1056-12.8525 25.313-17.9464 12.8767-6.4261 27.9112-10.9534 43.8628-13.2082 10.4384-1.4756 41.34942-1.0849 52.08612.6583zm410.2199 38.7146c18.7051 36.0706 5.4422 84.0059-34.2128 123.65347-31.9246 31.9187-76.3556 53.861-122.4013 60.4481-23.9927 3.4323-51.1821 1.4138-71.0371-5.2736-8.0401-2.708-22.7683-10.2426-28.5323-14.5964-13.7314-10.372-26.3158-28.3625-28.9089-41.328l-.4702-2.3511 7.0464 4.8621c19.4122 13.3947 41.6509 20.1909 69.6713 21.2919 55.9751 2.1994 116.6593-22.4162 158.2653-64.19777 26.1629-26.2734 41.4834-56.4385 43.2296-85.1165l.4985-8.1865 1.7608 2.1865c.9685 1.2026 3.2593 5.0761 5.0907 8.6078zm-542.26032 11.3913c3.4967 31.0263 26.3704 65.6007 60.0404 90.7529 38.80322 28.98677 90.53342 45.54707 136.87502 43.81757 11.6935-.4364 24.4973-1.9325 32.3704-3.7824l4.2454-.9975 2.7282 3.5775c3.2617 4.277 10.6382 11.9329 15.6608 16.2541l3.6298 3.1228-4.0048 2.5582c-10.4508 6.6756-24.1192 12.2964-37.6241 15.4719-15.0039 3.528-21.1897 4.1642-40.2557 4.1401-14.6616-.019-19.4534-.3124-28.5-1.7472-16.9937-2.6954-33.9863-7.3758-49.87502-13.7373-73.8572-29.5711-119.1858-92.64167-104.547-145.46777 1.5945-5.7537 7.2536-18.6504 8.1839-18.6504.2994 0 .7821 2.1093 1.0727 4.6875zm251.32672 8.2475c8.5194 8.6643 16.8387 18.6699 16.8387 20.2517 0 .3922-1.8403 3.97-4.0895 7.9507-13.9888 24.7567-18.5172 53.5816-11.9992 76.37827 7.2328 25.2965 24.5392 44.0294 51.9824 56.2669 6.9001 3.0768 3.9708 2.6738-7.3937-1.0174-10.4671-3.3998-25.743-11.0758-34.3471-17.2591-8.2899-5.9575-16.9233-14.3051-22.7799-22.0258-4.7458-6.2563-11.6525-18.9925-14.0212-25.85527-7.7691-22.5099-7.3763-47.6391 1.1457-73.2933 3.1601-9.513 13.2861-30.5804 14.7002-30.5842.51 0 4.9936 4.133 9.9636 9.1875zm22.3714 27.7572c9.6272 16.6376 14.8653 32.3455 15.9684 47.8856l.4658 6.5625-6.2959 6.2584c-3.4628 3.4422-8.5897 7.88247-11.3931 9.86747l-5.0971 3.609-2.7779-2.1024c-1.5278-1.1563-4.381-3.5932-6.3404-5.41527l-3.5625-3.3128v-9.2458c0-15.8934 3.7133-30.4112 12.1139-47.3614 2.5043-5.0532 4.7688-9.1854 5.0322-9.1828.2634 0 1.1124 1.0995 1.8866 2.4375zm14.3724 69.28207c-1.2263 5.405-4.0818 13.7757-4.6993 13.7757-.9959 0-10.7058-5.5262-10.7058-6.0929 0-.3615.3038-.6571.6751-.6571.8085 0 11.8461-8.8659 13.8828-11.15137.7881-.8843 1.5641-1.4767 1.7244-1.3164.1603.1603-.2345 2.6092-.8772 5.44207zm-26.3414 51.7309c2.0489.7862 1.3357 1.504-3.8762 3.9013-6.1539 2.8307-15.1875 6.2643-15.1875 5.7728 0-.1968 1.9407-1.3506 4.3125-2.564 2.3719-1.2134 6.1688-3.4034 8.4375-4.8666 4.4739-2.8853 4.5607-2.9162 6.3137-2.2435z" transform="matrix(1.33333 0 0 -1.33333 -1137.1468 1451.1162)"/></svg>