<?xml version="1.0" encoding="UTF-8"?> <svg xmlns="http://www.w3.org/2000/svg" width="108" height="59" viewBox="0 0 108 59" fill="none"><path d="M35.1612 40.336C34.6812 40.168 34.4412 39.844 34.4412 39.364C34.4412 39.1 34.5372 38.872 34.7292 38.68C34.9452 38.488 35.1732 38.392 35.4132 38.392C35.7012 38.392 35.9292 38.488 36.0972 38.68C36.2892 38.872 36.3852 39.1 36.3852 39.364C36.3852 39.652 36.2532 39.904 35.9892 40.12C35.7252 40.312 35.4492 40.384 35.1612 40.336ZM33.2892 52.612C32.6172 52.612 32.1012 52.372 31.7412 51.892C31.4052 51.412 31.2372 50.776 31.2372 49.984C31.2372 49.6 31.2732 49.192 31.3452 48.76C31.4412 48.328 31.5612 47.884 31.7052 47.428C31.9212 46.756 32.1732 46.036 32.4612 45.268C32.7492 44.5 32.9772 43.96 33.1452 43.648C33.0972 43.672 32.9652 43.828 32.7492 44.116C32.5572 44.404 32.3052 44.764 31.9932 45.196C31.7052 45.604 31.4052 46.024 31.0932 46.456C30.7812 46.888 30.5052 47.248 30.2652 47.536C30.1932 47.608 30.1092 47.644 30.0132 47.644C29.9172 47.644 29.8692 47.608 29.8692 47.536C29.8692 47.464 29.9172 47.344 30.0132 47.176C30.6852 46.168 31.2972 45.268 31.8492 44.476C32.4012 43.66 32.9052 42.88 33.3612 42.136C33.6012 41.728 33.8892 41.536 34.2252 41.56C34.5612 41.56 34.9212 41.56 35.3052 41.56C35.2092 41.752 35.0172 42.184 34.7292 42.856C34.4652 43.528 34.1652 44.272 33.8292 45.088C33.5172 45.88 33.2412 46.576 33.0012 47.176C32.7612 47.776 32.5572 48.376 32.3892 48.976C32.2452 49.576 32.1732 50.116 32.1732 50.596C32.1732 51.604 32.5452 52.108 33.2892 52.108C33.9372 52.108 34.6452 51.832 35.4132 51.28C36.1812 50.704 36.9492 49.972 37.7172 49.084C38.5092 48.196 39.2532 47.272 39.9492 46.312C40.0692 46.12 40.1892 46.024 40.3092 46.024C40.3812 46.024 40.4172 46.084 40.4172 46.204C40.4172 46.3 40.3932 46.396 40.3452 46.492V46.456C39.5532 47.584 38.7492 48.616 37.9332 49.552C37.1412 50.488 36.3612 51.232 35.5932 51.784C34.8252 52.336 34.0572 52.612 33.2892 52.612ZM38.6105 52.432C38.6105 52.432 38.8025 52.012 39.1865 51.172C39.5705 50.308 40.0745 49.072 40.6985 47.464C41.2265 46.264 41.6225 45.4 41.8865 44.872C42.1505 44.32 42.3185 43.972 42.3905 43.828C42.4625 43.684 42.4745 43.624 42.4265 43.648C42.3785 43.672 42.1985 43.9 41.8865 44.332C41.5985 44.74 41.2625 45.22 40.8785 45.772C40.5185 46.3 40.1705 46.756 39.8345 47.14C39.7625 47.236 39.6785 47.284 39.5825 47.284C39.4865 47.284 39.4385 47.236 39.4385 47.14C39.4385 47.044 39.4865 46.936 39.5825 46.816C40.2545 45.808 40.8185 44.968 41.2745 44.296C41.7305 43.6 42.1865 42.88 42.6425 42.136C42.8825 41.728 43.1705 41.536 43.5065 41.56C43.8425 41.56 44.2025 41.56 44.5865 41.56C44.4905 41.776 44.3345 42.136 44.1185 42.64C43.9025 43.144 43.6505 43.72 43.3625 44.368C43.0985 44.992 42.8465 45.616 42.6065 46.24C43.0145 45.544 43.5545 44.764 44.2265 43.9C44.9225 43.012 45.6425 42.34 46.3865 41.884C47.0105 41.5 47.5865 41.308 48.1145 41.308C48.4985 41.308 48.8105 41.416 49.0505 41.632C49.2905 41.824 49.4105 42.124 49.4105 42.532C49.4105 42.916 49.2905 43.36 49.0505 43.864C48.7625 44.464 48.3905 45.184 47.9345 46.024C47.4785 46.84 47.0465 47.656 46.6385 48.472C46.2545 49.264 45.9785 49.948 45.8105 50.524C45.7865 50.62 45.7625 50.716 45.7385 50.812C45.7385 50.884 45.7385 50.968 45.7385 51.064C45.7385 51.592 46.0265 51.856 46.6025 51.856C46.8185 51.856 47.1065 51.796 47.4665 51.676C48.1625 51.388 48.8825 50.896 49.6265 50.2C50.3945 49.48 51.1145 48.712 51.7865 47.896C52.4825 47.056 53.0345 46.312 53.4425 45.664C53.5145 45.568 53.5865 45.52 53.6585 45.52C53.7305 45.52 53.7785 45.568 53.8025 45.664C53.8505 45.76 53.8385 45.868 53.7665 45.988C53.3585 46.66 52.8065 47.404 52.1105 48.22C51.4145 49.036 50.6705 49.792 49.8785 50.488C49.1105 51.184 48.3665 51.688 47.6465 52C47.4065 52.096 47.1785 52.168 46.9625 52.216C46.7465 52.264 46.5425 52.288 46.3505 52.288C45.8465 52.288 45.4265 52.144 45.0905 51.856C44.7785 51.544 44.6225 51.112 44.6225 50.56C44.6225 49.888 44.8385 49.132 45.2705 48.292C45.7025 47.452 46.1825 46.612 46.7105 45.772C47.2625 44.908 47.6945 44.128 48.0065 43.432C48.1025 43.24 48.1505 43.048 48.1505 42.856C48.1505 42.304 47.8865 42.028 47.3585 42.028C47.1185 42.028 46.8305 42.124 46.4945 42.316C45.9425 42.652 45.3785 43.18 44.8025 43.9C44.2505 44.596 43.7225 45.352 43.2185 46.168C42.5225 47.272 41.8865 48.376 41.3105 49.48C40.7345 50.584 40.3145 51.46 40.0505 52.108C39.7385 52.108 39.4145 52.156 39.0785 52.252C38.7665 52.372 38.6105 52.432 38.6105 52.432ZM54.9638 52.216C54.4838 52.216 54.0638 52.024 53.7038 51.64C53.3438 51.256 53.1638 50.692 53.1638 49.948C53.1638 49.612 53.2118 49.24 53.3078 48.832C53.4038 48.4 53.5598 47.944 53.7758 47.464C54.3278 46.264 54.7358 45.4 54.9998 44.872C55.2638 44.32 55.4318 43.972 55.5038 43.828C55.5758 43.684 55.5878 43.624 55.5398 43.648C55.4918 43.672 55.3118 43.9 54.9998 44.332C54.7118 44.74 54.3758 45.22 53.9918 45.772C53.6318 46.3 53.2838 46.756 52.9478 47.14C52.8758 47.236 52.7918 47.284 52.6958 47.284C52.5998 47.284 52.5518 47.236 52.5518 47.14C52.5518 47.044 52.5998 46.936 52.6958 46.816C53.3678 45.808 53.9318 44.968 54.3878 44.296C54.8438 43.6 55.2998 42.88 55.7558 42.136C55.9958 41.728 56.2838 41.536 56.6198 41.56C56.9558 41.56 57.3158 41.56 57.6998 41.56C57.6038 41.728 57.4118 42.148 57.1238 42.82C56.8358 43.468 56.5238 44.2 56.1878 45.016C55.8518 45.808 55.5398 46.504 55.2518 47.104C54.6038 48.496 54.2798 49.648 54.2798 50.56C54.2798 51.4 54.6038 51.82 55.2518 51.82C55.7558 51.82 56.2718 51.568 56.7998 51.064C57.3518 50.56 57.8558 49.936 58.3118 49.192C58.7678 48.448 59.1398 47.728 59.4278 47.032C59.4278 47.008 59.4038 46.876 59.3558 46.636C59.3318 46.372 59.3198 45.976 59.3198 45.448C59.3198 45.136 59.3318 44.764 59.3558 44.332C59.3798 43.9 59.4278 43.42 59.4998 42.892C59.6438 41.812 59.9558 41.02 60.4358 40.516C60.9398 39.988 61.2878 39.724 61.4798 39.724C61.5998 39.724 61.7318 39.772 61.8758 39.868C62.0438 39.94 62.1278 40.18 62.1278 40.588C62.1278 40.972 61.9838 41.692 61.6958 42.748C61.5518 43.252 61.3478 43.816 61.0838 44.44C60.8198 45.064 60.5798 45.604 60.3638 46.06C60.1478 46.492 60.0398 46.72 60.0398 46.744L60.0758 47.212C60.1238 47.692 60.2678 48.076 60.5078 48.364C60.7478 48.628 61.0478 48.76 61.4078 48.76C61.7678 48.76 62.1398 48.64 62.5238 48.4C62.7158 48.28 62.9918 48.016 63.3518 47.608C63.7118 47.176 64.0118 46.792 64.2518 46.456C64.3958 46.288 64.5038 46.204 64.5758 46.204C64.6478 46.204 64.6838 46.264 64.6838 46.384C64.6838 46.504 64.6478 46.624 64.5758 46.744C64.3358 47.128 64.0358 47.536 63.6758 47.968C63.3158 48.376 63.0038 48.676 62.7398 48.868C62.3318 49.204 61.8878 49.372 61.4078 49.372C60.9518 49.372 60.5438 49.204 60.1838 48.868C59.8238 48.532 59.6198 48.136 59.5718 47.68C59.5718 47.68 59.4638 47.908 59.2478 48.364C59.0318 48.82 58.7198 49.348 58.3118 49.948C57.9038 50.548 57.4118 51.076 56.8358 51.532C56.2838 51.988 55.6598 52.216 54.9638 52.216ZM68.8761 40.336C68.3961 40.168 68.1561 39.844 68.1561 39.364C68.1561 39.1 68.2521 38.872 68.4441 38.68C68.6601 38.488 68.8881 38.392 69.1281 38.392C69.4161 38.392 69.6441 38.488 69.8121 38.68C70.0041 38.872 70.1001 39.1 70.1001 39.364C70.1001 39.652 69.9681 39.904 69.7041 40.12C69.4401 40.312 69.1641 40.384 68.8761 40.336ZM67.0041 52.612C66.3321 52.612 65.8161 52.372 65.4561 51.892C65.1201 51.412 64.9521 50.776 64.9521 49.984C64.9521 49.6 64.9881 49.192 65.0601 48.76C65.1561 48.328 65.2761 47.884 65.4201 47.428C65.6361 46.756 65.8881 46.036 66.1761 45.268C66.4641 44.5 66.6921 43.96 66.8601 43.648C66.8121 43.672 66.6801 43.828 66.4641 44.116C66.2721 44.404 66.0201 44.764 65.7081 45.196C65.4201 45.604 65.1201 46.024 64.8081 46.456C64.4961 46.888 64.2201 47.248 63.9801 47.536C63.9081 47.608 63.8241 47.644 63.7281 47.644C63.6321 47.644 63.5841 47.608 63.5841 47.536C63.5841 47.464 63.6321 47.344 63.7281 47.176C64.4001 46.168 65.0121 45.268 65.5641 44.476C66.1161 43.66 66.6201 42.88 67.0761 42.136C67.3161 41.728 67.6041 41.536 67.9401 41.56C68.2761 41.56 68.6361 41.56 69.0201 41.56C68.9241 41.752 68.7321 42.184 68.4441 42.856C68.1801 43.528 67.8801 44.272 67.5441 45.088C67.2321 45.88 66.9561 46.576 66.7161 47.176C66.4761 47.776 66.2721 48.376 66.1041 48.976C65.9601 49.576 65.8881 50.116 65.8881 50.596C65.8881 51.604 66.2601 52.108 67.0041 52.108C67.6521 52.108 68.3601 51.832 69.1281 51.28C69.8961 50.704 70.6641 49.972 71.4321 49.084C72.2241 48.196 72.9681 47.272 73.6641 46.312C73.7841 46.12 73.9041 46.024 74.0241 46.024C74.0961 46.024 74.1321 46.084 74.1321 46.204C74.1321 46.3 74.1081 46.396 74.0601 46.492V46.456C73.2681 47.584 72.4641 48.616 71.6481 49.552C70.8561 50.488 70.0761 51.232 69.3081 51.784C68.5401 52.336 67.7721 52.612 67.0041 52.612ZM74.8453 52.36C74.1973 52.36 73.6693 52.144 73.2613 51.712C72.8773 51.28 72.6853 50.716 72.6853 50.02C72.6853 49.564 72.7693 49.096 72.9373 48.616C73.4173 47.224 73.9813 45.796 74.6293 44.332C75.3013 42.844 76.0213 41.392 76.7893 39.976H75.3133C75.0013 39.976 74.8453 39.904 74.8453 39.76C74.8453 39.568 75.0013 39.472 75.3133 39.472H77.0413C77.2813 39.04 77.5573 38.524 77.8693 37.924C78.1813 37.3 78.4933 36.688 78.8053 36.088C79.1413 35.464 79.4293 34.924 79.6693 34.468C79.9333 34.012 80.1013 33.724 80.1733 33.604C80.2693 33.46 80.4013 33.364 80.5693 33.316C80.7613 33.244 80.9413 33.208 81.1093 33.208C81.3013 33.208 81.4453 33.232 81.5413 33.28C81.6613 33.328 81.6853 33.412 81.6133 33.532C81.5413 33.652 81.3733 33.952 81.1093 34.432C80.8693 34.888 80.5813 35.428 80.2453 36.052C79.9093 36.676 79.5733 37.3 79.2373 37.924C78.9013 38.548 78.6253 39.064 78.4093 39.472H80.0293C81.2293 39.472 82.3213 39.46 83.3053 39.436C84.2893 39.388 84.9133 39.304 85.1773 39.184C85.3213 39.112 85.4413 39.076 85.5373 39.076C85.6573 39.076 85.7173 39.124 85.7173 39.22C85.7173 39.34 85.5853 39.484 85.3213 39.652C85.0333 39.82 84.4093 39.916 83.4493 39.94C82.5133 39.964 81.4693 39.976 80.3173 39.976H78.1573C77.3173 41.56 76.5253 43.048 75.7813 44.44C75.0613 45.832 74.4253 47.38 73.8733 49.084C73.7293 49.54 73.6573 49.948 73.6573 50.308C73.6573 51.268 74.0773 51.748 74.9173 51.748C75.3253 51.748 75.8653 51.58 76.5373 51.244C77.5933 50.692 78.5893 49.936 79.5253 48.976C80.4613 47.992 81.3013 46.96 82.0453 45.88C82.1653 45.736 82.2733 45.664 82.3693 45.664C82.5613 45.664 82.5853 45.796 82.4413 46.06C81.6973 47.236 80.8573 48.316 79.9213 49.3C78.9853 50.26 77.9413 51.076 76.7893 51.748C76.0933 52.156 75.4453 52.36 74.8453 52.36ZM84.3353 52.288C83.2313 52.288 82.4393 51.916 81.9593 51.172C81.5033 50.428 81.2753 49.588 81.2753 48.652C81.2753 48.292 81.3113 47.932 81.3833 47.572C81.4553 47.188 81.5393 46.84 81.6353 46.528C81.8993 45.76 82.2473 45.052 82.6793 44.404C83.1353 43.732 83.6273 43.168 84.1553 42.712C84.6113 42.28 85.0913 41.944 85.5953 41.704C86.1233 41.464 86.6033 41.344 87.0353 41.344C87.4433 41.344 87.7673 41.464 88.0073 41.704C88.2713 41.92 88.4033 42.292 88.4033 42.82C88.4033 43.228 88.3193 43.684 88.1513 44.188C87.8873 45.052 87.3353 45.808 86.4953 46.456C85.6793 47.08 84.8153 47.392 83.9033 47.392C83.7353 47.392 83.5673 47.38 83.3993 47.356C83.2313 47.308 83.0513 47.26 82.8593 47.212C82.7633 47.572 82.6793 47.944 82.6073 48.328C82.5593 48.688 82.5353 49.036 82.5353 49.372C82.5353 50.044 82.6793 50.62 82.9673 51.1C83.2553 51.58 83.7593 51.82 84.4793 51.82C85.0313 51.82 85.6553 51.616 86.3513 51.208C87.0473 50.8 87.7433 50.284 88.4393 49.66C89.1593 49.036 89.8073 48.4 90.3833 47.752C90.9593 47.08 91.4153 46.48 91.7513 45.952C91.8233 45.832 91.8953 45.772 91.9673 45.772C92.0873 45.772 92.1473 45.844 92.1473 45.988C92.1473 46.06 92.1113 46.156 92.0393 46.276C91.4393 47.14 90.7553 47.992 89.9873 48.832C89.2193 49.672 88.4153 50.392 87.5753 50.992C86.9993 51.4 86.4353 51.724 85.8833 51.964C85.3553 52.18 84.8393 52.288 84.3353 52.288ZM83.7233 47.14C84.1793 47.14 84.6593 46.972 85.1633 46.636C85.6673 46.276 86.1233 45.868 86.5313 45.412C86.9393 44.932 87.2273 44.512 87.3953 44.152C87.7553 43.384 87.9353 42.796 87.9353 42.388C87.9353 41.884 87.7193 41.632 87.2873 41.632C86.9993 41.632 86.6393 41.788 86.2073 42.1C85.7753 42.388 85.3433 42.82 84.9113 43.396C84.5033 43.948 84.1313 44.548 83.7953 45.196C83.4593 45.844 83.1953 46.408 83.0033 46.888C83.1953 47.056 83.4353 47.14 83.7233 47.14ZM99.2207 52.252C98.5727 52.252 98.1047 52.012 97.8167 51.532C97.5527 51.028 97.4207 50.44 97.4207 49.768C97.4207 49.312 97.4807 48.808 97.6007 48.256C97.5287 48.424 97.3847 48.712 97.1687 49.12C96.9527 49.504 96.6767 49.924 96.3407 50.38C96.0047 50.812 95.6207 51.196 95.1887 51.532C94.7807 51.868 94.3247 52.072 93.8207 52.144C93.7487 52.168 93.6647 52.18 93.5687 52.18C93.4967 52.18 93.4247 52.18 93.3527 52.18C92.6087 52.18 92.0087 51.916 91.5527 51.388C91.0967 50.836 90.8687 50.08 90.8687 49.12C90.8687 48.184 91.1207 47.068 91.6247 45.772C91.8647 45.148 92.2247 44.512 92.7047 43.864C93.1847 43.216 93.7727 42.664 94.4687 42.208C95.1647 41.752 95.9327 41.524 96.7727 41.524C97.6367 41.524 98.2127 41.668 98.5007 41.956C98.8127 42.22 99.0647 42.46 99.2567 42.676C99.8087 41.068 100.409 39.448 101.057 37.816C101.705 36.16 102.485 34.66 103.397 33.316C103.757 32.764 104.153 32.356 104.585 32.092C105.041 31.828 105.461 31.696 105.845 31.696C106.229 31.696 106.541 31.828 106.781 32.092C107.021 32.332 107.141 32.728 107.141 33.28C107.141 33.832 106.985 34.504 106.673 35.296C106.217 36.424 105.425 37.804 104.297 39.436C103.193 41.044 101.621 42.832 99.5807 44.8C99.4847 45.04 99.3527 45.448 99.1847 46.024C99.0167 46.576 98.8607 47.188 98.7167 47.86C98.5967 48.532 98.5367 49.156 98.5367 49.732C98.5367 50.26 98.6207 50.716 98.7887 51.1C98.9567 51.46 99.2567 51.64 99.6887 51.64C99.9287 51.64 100.205 51.568 100.517 51.424C101.213 51.136 101.933 50.656 102.677 49.984C103.421 49.288 104.117 48.544 104.765 47.752C105.437 46.96 105.977 46.24 106.385 45.592C106.529 45.352 106.661 45.232 106.781 45.232C106.853 45.232 106.889 45.292 106.889 45.412C106.889 45.508 106.817 45.688 106.673 45.952C106.265 46.624 105.725 47.368 105.053 48.184C104.381 48.976 103.661 49.72 102.893 50.416C102.125 51.088 101.381 51.58 100.661 51.892C100.109 52.132 99.6287 52.252 99.2207 52.252ZM99.7607 44.08C101.249 42.592 102.545 41.032 103.649 39.4C104.777 37.768 105.605 36.352 106.133 35.152C106.325 34.744 106.457 34.384 106.529 34.072C106.601 33.76 106.637 33.484 106.637 33.244C106.637 32.74 106.481 32.488 106.169 32.488C105.977 32.488 105.725 32.62 105.413 32.884C105.101 33.148 104.753 33.592 104.369 34.216C103.433 35.728 102.593 37.324 101.849 39.004C101.129 40.66 100.433 42.352 99.7607 44.08ZM93.5327 51.676C93.6767 51.676 93.7847 51.664 93.8567 51.64C94.4327 51.52 94.9727 51.184 95.4767 50.632C95.9807 50.08 96.4487 49.396 96.8807 48.58C97.3127 47.74 97.7087 46.852 98.0687 45.916C98.4527 44.956 98.8007 44.032 99.1127 43.144C98.9927 42.976 98.8127 42.796 98.5727 42.604C98.3567 42.412 98.0447 42.244 97.6367 42.1C97.5167 42.052 97.3967 42.016 97.2767 41.992C97.1567 41.968 97.0367 41.956 96.9167 41.956C96.3167 41.956 95.7647 42.196 95.2607 42.676C94.7807 43.132 94.3487 43.684 93.9647 44.332C93.6047 44.98 93.3047 45.568 93.0647 46.096C92.5367 47.2 92.2727 48.352 92.2727 49.552C92.2727 50.152 92.3687 50.656 92.5607 51.064C92.7527 51.472 93.0767 51.676 93.5327 51.676Z" fill="#252222"></path><path d="M2.88719 5.088C5.67119 4.896 8.13119 4.8 10.2672 4.8C16.1952 4.8 19.1592 6.78 19.1592 10.74C19.1592 12.42 18.7512 13.92 17.9352 15.24C17.1192 16.56 15.7152 17.436 13.7232 17.868L20.9232 30H17.5752L10.5192 18.084H5.87519V30H2.88719V5.088ZM10.2672 5.16C8.87519 5.16 7.41119 5.244 5.87519 5.412V17.724H11.2032C14.5872 17.58 16.2792 15.276 16.2792 10.812C16.2792 8.988 15.7752 7.596 14.7672 6.636C13.7592 5.652 12.2592 5.16 10.2672 5.16ZM37.7923 6.312C35.6083 5.472 33.5443 5.052 31.6003 5.052C29.6803 5.052 28.1803 5.46 27.1003 6.276C26.0203 7.092 25.4803 8.22 25.4803 9.66C25.4803 11.412 26.3923 12.768 28.2163 13.728C29.0323 14.136 29.9203 14.52 30.8803 14.88C31.8643 15.216 32.8483 15.6 33.8323 16.032C34.8163 16.464 35.7163 16.956 36.5323 17.508C37.3483 18.06 38.0083 18.828 38.5123 19.812C39.0163 20.772 39.2683 22.008 39.2683 23.52C39.2683 25.008 38.8483 26.28 38.0083 27.336C37.1683 28.392 36.1483 29.112 34.9483 29.496C33.7723 29.856 32.3923 30.036 30.8083 30.036C27.8563 30.036 25.3363 29.304 23.2483 27.84L23.4283 27.552C24.2203 28.176 25.2403 28.692 26.4883 29.1C27.7603 29.484 29.0563 29.676 30.3763 29.676C32.3203 29.676 33.9763 29.232 35.3443 28.344C36.7363 27.432 37.4323 26.1 37.4323 24.348C37.4323 22.428 36.5203 20.928 34.6963 19.848C33.8803 19.368 32.9803 18.924 31.9963 18.516C31.0363 18.108 30.0643 17.688 29.0803 17.256C28.0963 16.8 27.1963 16.296 26.3803 15.744C24.5563 14.544 23.6443 12.84 23.6443 10.632C23.6443 8.88 24.2323 7.464 25.4083 6.384C26.5843 5.28 28.3483 4.728 30.7003 4.728C33.0763 4.728 35.4883 5.136 37.9363 5.952L37.7923 6.312ZM59.6401 4.8C60.0961 5.256 60.3241 5.844 60.3241 6.564C60.3241 7.164 60.1921 7.776 59.9281 8.4L50.7121 30L50.3161 30.18L41.2441 4.8H44.3041L51.8281 26.112L59.4961 8.4C59.7601 7.8 59.8921 7.176 59.8921 6.528C59.8921 5.88 59.7121 5.376 59.3521 5.016L59.6401 4.8ZM63.9184 5.088C66.7024 4.896 69.1504 4.8 71.2624 4.8C77.2144 4.8 80.1904 6.9 80.1904 11.1C80.1904 13.044 79.6864 14.748 78.6784 16.212C78.1504 17.004 77.3344 17.64 76.2304 18.12C75.1264 18.576 73.7944 18.804 72.2344 18.804H66.9064V30H63.9184V5.088ZM71.2984 5.16C69.9064 5.16 68.4424 5.244 66.9064 5.412V18.444H72.2344C75.6184 18.3 77.3104 15.876 77.3104 11.172C77.3104 9.252 76.8064 7.776 75.7984 6.744C74.7904 5.688 73.2904 5.16 71.2984 5.16Z" fill="#252222"></path></svg> 